<?xml version="1.0" standalone="no"?>
<!DOCTYPE svg PUBLIC "-//W3C//DTD SVG 20010904//EN"
 "http://www.w3.org/TR/2001/REC-SVG-20010904/DTD/svg10.dtd">
<svg version="1.0" xmlns="http://www.w3.org/2000/svg"
 width="800.000000pt" height="800.000000pt" viewBox="0 0 800.000000 800.000000"
 preserveAspectRatio="xMidYMid meet">
<metadata>
Created by potrace 1.14, written by Peter Selinger 2001-2017
</metadata>
<g transform="translate(0.000000,800.000000) scale(0.100000,-0.100000)"
fill="#000000" stroke="none">
<path d="M3780 7989 c-578 -30 -1164 -195 -1675 -471 -1357 -736 -2172 -2179
-2095 -3711 31 -610 189 -1179 472 -1702 736 -1357 2179 -2172 3711 -2095 610
31 1179 189 1702 472 1357 736 2172 2179 2095 3711 -51 1007 -457 1922 -1168
2633 -630 630 -1423 1019 -2322 1139 -107 14 -467 37 -535 33 -16 0 -100 -5
-185 -9z m-667 -823 l397 -229 0 -1609 c0 -1114 -3 -1608 -10 -1608 -6 0 -188
102 -405 228 l-395 227 0 1581 c0 870 -3 1596 -6 1614 -6 25 -4 31 8 29 8 -2
193 -107 411 -233z m1792 -4260 l1390 -803 3 -467 c1 -256 1 -466 -2 -466 -2
0 -271 154 -597 343 -327 189 -955 552 -1396 806 l-803 464 0 463 c0 255 3
464 8 464 4 -1 633 -362 1397 -804z"/>
</g>
</svg>
